<?xml version="1.0" encoding="utf-8"?>
<!-- Generator: Adobe Illustrator 24.0.1, SVG Export Plug-In . SVG Version: 6.00 Build 0)  -->
<svg version="1.1" id="Camada_1" xmlns="http://www.w3.org/2000/svg" xmlns:xlink="http://www.w3.org/1999/xlink" x="0px" y="0px"
	 viewBox="0 0 750 500" style="enable-background:new 0 0 750 500;" xml:space="preserve">
<style type="text/css">
	.st0{fill:#FFFFFF;}
	.st1{fill:#F76B0A;}
	.st2{font-family:'ArialRoundedMTBold';}
	.st3{font-size:149.5614px;}
	.st4{font-size:169.5954px;}
</style>
<g id="BACKGROUND">
</g>
<polygon class="st0" points="424.9,306.3 329.5,306.3 334.3,298 377.2,223.6 382,231.9 420.1,298 "/>
<polygon class="st0" points="318.7,447.3 199.8,447.3 401.1,98.7 375.9,55.1 124.3,491 174.6,491 318.7,491 362.4,491 362.4,447.3 
	362.4,329.5 318.7,329.5 "/>
<polygon class="st1" points="433.2,447.3 552.1,447.3 401.1,185.9 426.3,142.4 627.6,491 577.3,491 433.2,491 389.5,491 
	389.5,447.3 389.5,329.5 433.2,329.5 "/>
<g>
	<text transform="matrix(0.5028 -0.8644 0.8644 0.5028 123.2845 483.581)" class="st1 st2 st3">Master</text>
</g>
<g>
	<text transform="matrix(0.491 0.8712 -0.8712 0.491 438.1133 148.1174)" class="st0 st2 st4">Way</text>
</g>
</svg>
